<?xml version="1.0" encoding="UTF-8" standalone="no"?>
<!-- Created with Inkscape (http://www.inkscape.org/) -->

<svg
   xmlns:dc="http://purl.org/dc/elements/1.1/"
   xmlns:cc="http://creativecommons.org/ns#"
   xmlns:rdf="http://www.w3.org/1999/02/22-rdf-syntax-ns#"
   xmlns:svg="http://www.w3.org/2000/svg"
   xmlns="http://www.w3.org/2000/svg"
   xmlns:sodipodi="http://sodipodi.sourceforge.net/DTD/sodipodi-0.dtd"
   xmlns:inkscape="http://www.inkscape.org/namespaces/inkscape"
   version="1.1"
   id="svg29"
   xml:space="preserve"
   width="105.85413"
   height="82"
   viewBox="0 0 105.85414 82"
   sodipodi:docname="White_CockrellSchoolLogo.svg"
   inkscape:version="0.92.2 5c3e80d, 2017-08-06"><metadata
     id="metadata35"><rdf:RDF><cc:Work
         rdf:about=""><dc:format>image/svg+xml</dc:format><dc:type
           rdf:resource="http://purl.org/dc/dcmitype/StillImage" /><dc:title></dc:title></cc:Work></rdf:RDF></metadata><defs
     id="defs33" /><sodipodi:namedview
     pagecolor="#ffffff"
     bordercolor="#666666"
     borderopacity="1"
     objecttolerance="10"
     gridtolerance="10"
     guidetolerance="10"
     inkscape:pageopacity="0"
     inkscape:pageshadow="2"
     inkscape:window-width="3440"
     inkscape:window-height="1395"
     id="namedview31"
     showgrid="false"
     inkscape:pagecheckerboard="true"
     inkscape:zoom="2.7964015"
     inkscape:cx="108.58923"
     inkscape:cy="14.216388"
     inkscape:window-x="0"
     inkscape:window-y="1"
     inkscape:window-maximized="1"
     inkscape:current-layer="g37"
     fit-margin-top="5"
     fit-margin-left="0"
     fit-margin-right="50"
     fit-margin-bottom="5" /><g
     id="g37"
     inkscape:groupmode="layer"
     inkscape:label="ink_ext_XXXXXX"
     transform="matrix(1.3333333,0,0,-1.3333333,-71.999998,316.99999)"><g
       id="g39"
       transform="scale(0.1)"><path
         d="m 749.258,2159.63 h 0.461 v 0.16 h -0.461 v -0.16 0"
         style="fill:#ffffff;fill-opacity:1;fill-rule:nonzero;stroke:none"
         id="path41"
         inkscape:connector-curvature="0" /><path
         d="m 856.758,2249.9 v 14.46 h -8.906 v 24.67 h -6.036 c -12.746,0 -25.421,1.87 -37.695,3.67 -11.191,1.64 -21.777,3.2 -31.543,3.2 -9.187,0 -16.777,-1.45 -23.086,-4.42 -6.308,2.97 -13.906,4.42 -23.086,4.42 -9.765,0 -20.351,-1.56 -31.551,-3.2 -12.265,-1.8 -24.953,-3.67 -37.707,-3.67 h -6.015 v -24.67 h -8.914 v -14.46 h 8.914 v -19.57 h -8.809 v -14.45 h 8.809 v -26.8 h 6.015 c 13.633,0 26.993,2.07 39.922,4.06 10.918,1.68 21.231,3.29 30.039,3.29 7.11,0 12.442,-1.04 16.575,-3.19 v -0.01 h 11.609 v 0.01 c 4.133,2.15 9.473,3.19 16.562,3.19 8.829,0 19.141,-1.61 30.059,-3.29 12.922,-1.99 26.301,-4.06 39.902,-4.06 h 6.036 v 26.8 h 8.808 v 14.45 h -8.808 v 19.57 z m -161.524,-44.85 c -10.007,-1.55 -20.293,-3.11 -30.527,-3.67 l 2.734,76 c 9.981,0.64 19.7,2.01 29.161,3.4 10.753,1.58 20.918,3.07 29.804,3.07 6.914,0 12.364,-0.88 16.848,-2.76 v -10.54 l -2.277,-63.59 c -4.082,0.99 -8.633,1.5 -13.868,1.5 -9.726,0 -20.488,-1.66 -31.875,-3.41 z m 108.516,0 c -11.387,1.75 -22.148,3.41 -31.895,3.41 -5.214,0 -9.777,-0.51 -13.859,-1.5 l -2.273,63.59 v 10.54 c 4.492,1.88 9.941,2.76 16.855,2.76 8.887,0 19.043,-1.49 29.793,-3.07 9.465,-1.39 19.192,-2.76 29.172,-3.4 l 2.715,-76 c -10.235,0.56 -20.508,2.12 -30.508,3.67 v 0"
         style="fill:#ffffff;fill-opacity:1;fill-rule:nonzero;stroke:none"
         id="path43"
         inkscape:connector-curvature="0" /><path
         d="m 696.875,2269.86 c -0.598,-0.09 -1.184,-0.17 -1.777,-0.26 -5.664,-0.83 -11.414,-1.67 -17.227,-2.33 l -0.332,-9.75 c 6.426,0.7 12.734,1.63 18.953,2.55 0.129,0.03 0.254,0.04 0.383,0.07 v 9.72 0"
         style="fill:#ffffff;fill-opacity:1;fill-rule:nonzero;stroke:none"
         id="path45"
         inkscape:connector-curvature="0" /><path
         d="m 704.102,2270.89 v -9.73 c 10.253,1.43 19.648,2.45 27.812,1.78 l 0.332,9.6 c -8.691,0.65 -18.223,-0.31 -28.144,-1.65 v 0"
         style="fill:#ffffff;fill-opacity:1;fill-rule:nonzero;stroke:none"
         id="path47"
         inkscape:connector-curvature="0" /><path
         d="m 696.875,2225.77 c -0.598,-0.09 -1.184,-0.17 -1.777,-0.26 -6.18,-0.91 -12.461,-1.83 -18.809,-2.52 l -0.351,-9.73 c 6.972,0.74 13.828,1.73 20.554,2.72 0.129,0.02 0.254,0.04 0.383,0.06 v 9.73 0"
         style="fill:#ffffff;fill-opacity:1;fill-rule:nonzero;stroke:none"
         id="path49"
         inkscape:connector-curvature="0" /><path
         d="m 704.102,2226.8 v -9.73 c 9.589,1.33 18.457,2.32 26.23,1.89 l 0.332,9.59 c -8.262,0.43 -17.234,-0.48 -26.562,-1.75 v 0"
         style="fill:#ffffff;fill-opacity:1;fill-rule:nonzero;stroke:none"
         id="path51"
         inkscape:connector-curvature="0" /><path
         d="m 695.383,2247.6 v -9.75 c 0.371,0.06 0.738,0.12 1.109,0.18 12.883,1.87 24.66,3.61 34.621,2.95 l 0.34,9.57 c -11.023,0.68 -23.328,-1.08 -36.07,-2.95 v 0"
         style="fill:#ffffff;fill-opacity:1;fill-rule:nonzero;stroke:none"
         id="path53"
         inkscape:connector-curvature="0" /><path
         d="m 688.152,2246.56 c -3.66,-0.52 -7.351,-1.01 -11.074,-1.44 l -0.348,-9.73 c 3.856,0.41 7.665,0.92 11.422,1.44 v 9.73 0"
         style="fill:#ffffff;fill-opacity:1;fill-rule:nonzero;stroke:none"
         id="path55"
         inkscape:connector-curvature="0" /><path
         d="m 790.488,2271.46 c -8.34,1.02 -16.367,1.64 -23.758,1.08 l 0.34,-9.6 c 6.973,0.57 14.864,-0.1 23.418,-1.19 v 9.71 0"
         style="fill:#ffffff;fill-opacity:1;fill-rule:nonzero;stroke:none"
         id="path57"
         inkscape:connector-curvature="0" /><path
         d="m 821.105,2267.27 c -5.812,0.66 -11.562,1.5 -17.226,2.33 -2.07,0.3 -4.133,0.61 -6.164,0.89 v -9.73 c 1.562,-0.22 3.164,-0.45 4.765,-0.69 6.219,-0.92 12.54,-1.85 18.973,-2.55 l -0.348,9.75 v 0"
         style="fill:#ffffff;fill-opacity:1;fill-rule:nonzero;stroke:none"
         id="path59"
         inkscape:connector-curvature="0" /><path
         d="m 788.496,2249.65 c -7.324,0.83 -14.394,1.31 -20.976,0.9 l 0.339,-9.57 c 6.235,0.41 13.157,-0.1 20.637,-1.02 v 9.69 0"
         style="fill:#ffffff;fill-opacity:1;fill-rule:nonzero;stroke:none"
         id="path61"
         inkscape:connector-curvature="0" /><path
         d="m 821.895,2245.12 c -6.075,0.68 -12.098,1.56 -18.016,2.44 -2.746,0.39 -5.461,0.79 -8.156,1.17 V 2239 c 2.215,-0.31 4.472,-0.64 6.757,-0.97 6.473,-0.96 13.067,-1.92 19.766,-2.64 l -0.351,9.73 v 0"
         style="fill:#ffffff;fill-opacity:1;fill-rule:nonzero;stroke:none"
         id="path63"
         inkscape:connector-curvature="0" /><path
         d="m 802.949,2215.91 c 6.571,-0.97 13.274,-1.93 20.086,-2.65 l -0.34,9.73 c -6.355,0.69 -12.636,1.61 -18.816,2.52 -0.305,0.05 -0.617,0.09 -0.93,0.13 v -9.73 0"
         style="fill:#ffffff;fill-opacity:1;fill-rule:nonzero;stroke:none"
         id="path65"
         inkscape:connector-curvature="0" /><path
         d="m 795.723,2226.68 c -9.629,1.33 -18.899,2.3 -27.422,1.87 l 0.351,-9.59 c 8.008,0.43 17.149,-0.61 27.071,-2.02 v 9.74 0"
         style="fill:#ffffff;fill-opacity:1;fill-rule:nonzero;stroke:none"
         id="path67"
         inkscape:connector-curvature="0" /><path
         d="m 660.605,2082.3 v -0.01 l 54.454,-39.59 -20.977,-64.52 c 0.02,-0.11 0.078,-0.24 0.176,-0.32 0.097,-0.08 0.215,-0.08 0.332,-0.08 l 54.902,39.93 54.883,-39.9 c 0.117,-0.03 0.242,0 0.332,0.05 0.176,0.15 0.215,0.38 0.117,0.59 l -20.879,64.26 54.434,39.56 v 0.03 c 0.254,0.09 0.41,0.34 0.332,0.6 -0.078,0.24 -0.352,0.36 -0.625,0.28 v 0.02 h -67.305 l -20.801,64.03 h -0.031 c 0,0.27 -0.203,0.5 -0.457,0.5 -0.254,0 -0.461,-0.23 -0.461,-0.5 h -0.027 l -20.781,-64.03 h -67.325 l -0.019,-0.04 c -0.254,0.09 -0.527,-0.03 -0.606,-0.28 -0.078,-0.24 0.059,-0.5 0.332,-0.58 z m 76.348,-11.13 12.539,31.35 12.539,-31.35 33.699,-2.24 -25.945,-21.63 8.281,-32.72 -28.574,18.01 -28.574,-18.01 8.301,32.72 -25.957,21.63 33.691,2.24 v 0"
         style="fill:#ffffff;fill-opacity:1;fill-rule:nonzero;stroke:none"
         id="path69"
         inkscape:connector-curvature="0" /><path
         d="m 884.668,2036.26 c 11.23,3.38 20.645,10.77 26.504,20.85 5.859,10.06 7.676,21.91 5.098,33.35 l -1.133,5.03 -4.942,-1.47 c -5.683,-1.7 -10.918,-4.44 -15.449,-8.04 1.055,5.59 1.047,11.38 -0.058,17.07 -2.208,11.48 -8.633,21.6 -18.094,28.49 l -4.172,3.05 -2.742,-4.38 c -6.211,-9.88 -8.43,-21.67 -6.25,-33.17 2.195,-11.4 8.582,-21.45 17.957,-28.37 -1.739,-3.92 -2.918,-8.04 -3.496,-12.26 -2.786,7.61 -7.532,14.45 -13.926,19.72 l -3.985,3.3 -3.007,-4.2 c -6.778,-9.49 -9.707,-21.13 -8.223,-32.73 1.523,-11.55 7.324,-22.06 16.367,-29.53 l 0.215,-0.15 c -2.656,-3.6 -4.746,-7.54 -6.25,-11.71 -1.133,8.03 -4.375,15.69 -9.551,22.18 l -3.203,4.05 -3.808,-3.5 c -8.614,-7.89 -13.868,-18.65 -14.805,-30.33 -0.918,-11.62 2.617,-23.06 9.902,-32.24 l 0.188,-0.23 c -3.352,-2.95 -6.203,-6.39 -8.535,-10.16 0.543,8.12 -1.028,16.29 -4.75,23.71 l -2.313,4.61 -4.441,-2.65 c -10.063,-5.94 -17.434,-15.4 -20.754,-26.61 -3.282,-11.21 -2.207,-23.12 3.027,-33.61 l 0.137,-0.26 c -3.887,-2.2 -7.383,-4.96 -10.449,-8.18 2.207,7.83 2.343,16.15 0.234,24.16 l -1.309,5 -4.882,-1.64 c -11.067,-3.75 -20.223,-11.48 -25.809,-21.78 -5.344,-9.93 -6.801,-21.42 -4.191,-32.39 -1.473,-1.01 -3.016,-2.07 -4.629,-3.16 -1.602,1.09 -3.157,2.15 -4.629,3.16 2.605,10.97 1.164,22.46 -4.199,32.41 -5.567,10.28 -14.727,18.01 -25.801,21.76 l -4.883,1.64 -1.309,-5 c -2.109,-8.01 -1.972,-16.33 0.235,-24.16 -3.059,3.22 -6.551,5.98 -10.442,8.18 l 0.129,0.26 c 5.242,10.49 6.321,22.4 3.035,33.61 -3.328,11.21 -10.703,20.67 -20.757,26.61 l -4.434,2.65 -2.316,-4.61 c -3.731,-7.42 -5.293,-15.59 -4.747,-23.71 -2.343,3.79 -5.195,7.21 -8.535,10.16 l 0.176,0.23 c 7.305,9.18 10.82,20.62 9.902,32.27 -0.937,11.65 -6.191,22.41 -14.804,30.3 l -3.809,3.5 -3.203,-4.05 c -5.176,-6.49 -8.406,-14.15 -9.551,-22.18 -1.496,4.17 -3.586,8.11 -6.238,11.71 l 0.215,0.15 c 9.031,7.47 14.844,17.98 16.355,29.53 1.492,11.6 -1.426,23.24 -8.222,32.73 l -3.008,4.2 -3.977,-3.3 c -6.402,-5.27 -11.148,-12.11 -13.926,-19.74 -0.574,4.24 -1.746,8.36 -3.503,12.28 9.382,6.92 15.761,16.97 17.96,28.38 2.176,11.5 -0.042,23.28 -6.25,33.16 l -2.746,4.38 -4.171,-3.05 c -9.461,-6.89 -15.887,-17.01 -18.094,-28.47 -1.094,-5.71 -1.114,-11.49 -0.059,-17.09 -4.531,3.6 -9.765,6.34 -15.437,8.04 l -4.946,1.47 -1.132,-5.03 c -2.579,-11.44 -0.77,-23.29 5.089,-33.35 5.86,-10.08 15.274,-17.47 26.504,-20.85 l 4.356,-1.3 c 0.449,-3.66 1.367,-7.26 2.683,-10.74 -6.218,3.98 -13.328,6.41 -20.828,7.01 l -5.136,0.42 -0.079,-5.17 c -0.156,-11.71 4.063,-22.92 11.875,-31.55 7.813,-8.65 18.555,-13.95 30.235,-14.92 l 4.531,-0.38 c 1.191,-3.5 2.832,-6.84 4.844,-9.93 -5.078,1.9 -10.449,2.9 -15.977,2.9 -1.953,0 -3.918,-0.13 -5.847,-0.35 l -5.122,-0.67 0.997,-5.04 c 2.277,-11.52 8.71,-21.62 18.148,-28.47 7.84,-5.71 17.156,-8.71 26.902,-8.71 1.914,0 3.848,0.11 5.743,0.35 l 4.511,0.58 c 1.914,-3.18 4.192,-6.09 6.817,-8.73 -7.317,1.1 -14.825,0.45 -21.895,-2.01 l -4.883,-1.7 2.032,-4.74 c 4.589,-10.77 12.988,-19.34 23.613,-24.08 5.91,-2.64 12.16,-3.96 18.594,-3.96 5.136,0 10.214,0.86 15.097,2.54 l 3.594,1.25 c 5.996,-5.1 12.773,-10.18 22.09,-16.57 -4.258,-2.79 -8.945,-5.85 -14.199,-9.21 l 9.05,-5.63 c 5.121,3.3 9.653,6.27 13.782,9.02 4.129,-2.75 8.664,-5.72 13.781,-9.02 l 9.051,5.63 c -5.243,3.36 -9.942,6.42 -14.18,9.21 9.297,6.39 16.074,11.47 22.07,16.57 l 3.614,-1.25 c 4.882,-1.68 9.941,-2.54 15.078,-2.54 v 0 c 6.445,0 12.695,1.32 18.593,3.95 10.645,4.75 19.024,13.32 23.614,24.09 l 2.031,4.74 -4.883,1.7 c -7.07,2.46 -14.582,3.11 -21.887,1.99 2.622,2.64 4.907,5.57 6.809,8.75 l 4.512,-0.58 c 1.902,-0.24 3.828,-0.35 5.742,-0.35 0.019,0 0.019,0 0.019,0 9.727,0 19.043,3 26.895,8.71 9.426,6.85 15.867,16.95 18.137,28.47 l 0.996,5.04 -5.117,0.67 c -1.938,0.22 -3.911,0.35 -5.852,0.35 -5.519,0 -10.898,-1 -15.976,-2.9 2.011,3.09 3.652,6.43 4.863,9.93 l 4.512,0.38 c 11.691,0.97 22.421,6.27 30.222,14.92 7.824,8.63 12.043,19.84 11.887,31.55 l -0.078,5.17 -5.137,-0.42 c -7.488,-0.6 -14.609,-3.03 -20.828,-7.01 1.324,3.48 2.234,7.08 2.691,10.74 z m -257.148,9.13 c 0.957,7.27 4.05,13.99 8.867,19.41 3.261,-6.48 4.531,-13.78 3.593,-21.05 -0.957,-7.26 -4.05,-13.99 -8.875,-19.4 -3.285,6.47 -4.542,13.78 -3.585,21.04 z m -14.461,55.86 c 1.382,7.21 4.89,13.73 10.007,18.85 2.872,-6.66 3.692,-14.03 2.325,-21.23 -1.387,-7.2 -4.883,-13.73 -10.02,-18.87 -2.891,6.68 -3.711,14.04 -2.312,21.25 z m -1.926,-53.75 c -6.543,3.13 -12.012,8.13 -15.684,14.45 -3.691,6.33 -5.351,13.56 -4.844,20.82 6.524,-3.12 11.993,-8.1 15.704,-14.45 3.671,-6.33 5.332,-13.55 4.824,-20.82 z m 2.5,-46.12 c -4.903,5.42 -8.028,12.17 -9.024,19.36 7.024,-1.67 13.399,-5.45 18.329,-10.9 4.914,-5.4 8.031,-12.13 9.027,-19.34 -7.055,1.7 -13.43,5.46 -18.332,10.88 z m 39.472,11.24 c 4.532,-5.67 7.266,-12.53 7.872,-19.85 0.566,-7.32 -1.094,-14.53 -4.688,-20.84 -4.551,5.66 -7.285,12.56 -7.851,19.88 -0.567,7.3 1.074,14.53 4.667,20.81 z m -9.16,-66.74 c -5.937,4.3 -10.371,10.23 -12.84,17.07 7.286,-0.2 14.247,-2.54 20.184,-6.86 5.938,-4.27 10.371,-10.21 12.832,-17.09 -7.305,0.24 -14.258,2.58 -20.176,6.88 z m 72.676,-21.84 c 6.426,-3.32 11.719,-8.51 15.215,-14.96 3.477,-6.47 4.883,-13.75 4.141,-20.97 -6.446,3.37 -11.739,8.56 -15.196,15 -3.496,6.48 -4.902,13.75 -4.16,20.93 z m -36.641,19.65 c -2.07,7.03 -1.953,14.45 0.262,21.32 5.586,-4.58 9.707,-10.73 11.801,-17.78 2.059,-7.05 1.941,-14.46 -0.285,-21.35 -5.613,4.61 -9.727,10.78 -11.778,17.81 z m 5.079,-45.86 c -6.692,2.97 -12.266,7.88 -16.094,14.06 7.109,1.29 14.473,0.43 21.18,-2.55 6.679,-2.99 12.25,-7.86 16.078,-14.06 -7.121,-1.3 -14.493,-0.42 -21.164,2.55 z m 81.367,11.21 c 3.515,6.49 8.808,11.68 15.234,15 0.742,-7.18 -0.664,-14.45 -4.16,-20.93 -3.445,-6.44 -8.738,-11.63 -15.195,-15 -0.742,7.22 0.664,14.5 4.121,20.93 z m 62.89,2.85 c -3.828,-6.18 -9.394,-11.09 -16.101,-14.06 -4.652,-2.08 -9.582,-3.13 -14.66,-3.13 v 0 c -2.188,0 -4.356,0.18 -6.485,0.58 3.828,6.2 9.383,11.07 16.075,14.06 6.691,2.98 14.062,3.84 21.171,2.55 z m -11.015,31.78 c -2.051,-7.01 -6.16,-13.18 -11.778,-17.79 -2.226,6.89 -2.343,14.3 -0.285,21.33 2.09,7.05 6.211,13.22 11.809,17.8 2.219,-6.87 2.324,-14.29 0.254,-21.34 z m 19.004,49.08 c 0.605,7.34 3.34,14.2 7.871,19.87 3.594,-6.28 5.234,-13.51 4.668,-20.82 -0.567,-7.31 -3.301,-14.21 -7.852,-19.87 -3.594,6.31 -5.254,13.52 -4.687,20.82 z m 17.031,-46.87 c -5.918,-4.3 -12.871,-6.64 -20.164,-6.88 2.461,6.88 6.883,12.82 12.82,17.09 5.938,4.32 12.91,6.66 20.196,6.86 -2.481,-6.84 -6.915,-12.77 -12.852,-17.07 z m 53.34,136.89 c 0.508,-7.26 -1.153,-14.49 -4.844,-20.82 -3.672,-6.32 -9.121,-11.32 -15.676,-14.45 -0.508,7.27 1.145,14.49 4.824,20.82 3.711,6.35 9.172,11.33 15.696,14.45 z m -34.785,16.08 c -1.368,7.22 -0.536,14.59 2.324,21.25 5.129,-5.12 8.625,-11.66 10,-18.87 1.406,-7.19 0.586,-14.55 -2.305,-21.23 -5.137,5.14 -8.633,11.67 -10.019,18.85 z m -14.59,-55.12 c -0.938,7.29 0.332,14.59 3.594,21.07 4.824,-5.42 7.91,-12.14 8.867,-19.43 0.968,-7.24 -0.301,-14.55 -3.574,-21.02 -4.825,5.41 -7.93,12.14 -8.887,19.38 z m 26.347,-42.35 c -4.902,-5.42 -11.281,-9.18 -18.32,-10.88 0.996,7.21 4.102,13.94 9.004,19.34 4.949,5.45 11.328,9.23 18.34,10.9 -0.996,-7.19 -4.102,-13.94 -9.024,-19.36 v 0"
         style="fill:#ffffff;fill-opacity:1;fill-rule:nonzero;stroke:none"
         id="path71"
         inkscape:connector-curvature="0" /><path
         d="m 958.906,2324.81 -8.437,1.07 c -1.121,0.14 -113.438,14.11 -200.918,14.12 -0.02,0 -0.039,0 -0.059,0 -0.019,0 -0.051,0 -0.066,0 -87.473,-0.01 -199.778,-13.98 -200.91,-14.12 l -8.438,-1.07 v -155.4 H 540 v -21.68 c 0,-65.46 6.484,-150.09 57.07,-224.16 10.43,-15.25 22.278,-29.32 36.465,-43.01 l -0.012,-0.02 c 0.098,-0.08 0.188,-0.16 0.286,-0.24 27.441,-26.4 63.711,-51.32 115.586,-80.22 V 1800 c 0.019,0.04 0.031,0.04 0.046,0.04 0.024,0 0.032,0 0.051,-0.04 v 0.08 c 51.875,28.9 88.145,53.82 115.586,80.22 0.098,0.08 0.188,0.16 0.274,0.24 v 0.02 c 14.191,13.69 26.035,27.76 36.464,43.01 50.586,74.07 57.071,158.7 57.071,224.16 v 3.08 l 0.019,0.01 z m -389.492,-16.1 c 35.352,3.92 114.832,11.84 180.078,11.84 65.235,0 144.707,-7.92 180.071,-11.84 l 9.89,-139.3 H 749.492 559.52 Z m 316.492,-374.26 c -9.812,-14.35 -21.043,-27.67 -34.578,-40.63 -41.777,-38.37 -88.672,-59.56 -101.887,-65.07 -13.211,5.51 -60.105,26.7 -101.882,65.07 -13.536,12.96 -24.766,26.28 -34.579,40.63 -47.445,69.47 -53.664,150.02 -53.703,212.61 l 0.047,0.01 190.168,10.57 190.125,-10.56 c -0.047,-62.6 -6.265,-143.16 -53.711,-212.63 v 0"
         style="fill:#ffffff;fill-opacity:1;fill-rule:nonzero;stroke:none"
         id="path73"
         inkscape:connector-curvature="0" /></g></g></svg>